# 3ds Max Wavefront OBJ Exporter v0.97b - (c)2007 guruware
# File Created: 17.02.2014 00:51:27

mtllib Laboon One Piece.mtl

#
# object model1239
#

v  -0.6394 27.0742 114.3860
v  -0.6395 35.2875 117.3787
v  28.3082 28.0079 103.3713
v  30.6110 36.1792 104.9342
v  38.1848 30.9114 78.8088
v  40.7552 39.0731 80.0413
v  47.0978 31.3306 36.6349
v  49.8702 35.0465 37.1499
v  46.3743 31.2815 37.6382
v  42.0853 20.3604 63.3254
v  39.5327 28.3732 65.3318
v  28.4550 12.1245 85.3284
v  26.1703 20.2721 87.0334
v  -0.6395 8.6790 99.3209
v  -0.6394 17.4109 99.7216
v  43.6100 34.9152 38.5948
v  -0.6395 81.8199 -76.2194
v  -0.6392 81.8037 -103.0297
v  22.0550 92.3745 -105.2875
v  31.8103 92.9487 -83.9929
v  50.9912 88.6014 -115.0759
v  57.3617 86.1055 75.8123
v  53.5153 34.1144 32.4813
v  34.7225 35.2828 106.7141
v  -0.6394 33.3944 121.0852
v  -0.6394 86.3177 128.3704
v  36.2198 86.2118 118.6162
v  54.5001 76.0594 22.1685
v  12.8383 43.7142 -64.2874
v  38.9188 110.1146 12.0320
v  -0.6393 119.7876 7.1028
v  -0.6393 59.5359 -58.6458
v  -0.6394 134.3633 61.9994
v  -0.6395 126.3011 99.9919
v  37.5693 115.5918 94.5071
v  -0.6393 13.7738 -26.5275
v  45.2770 18.7006 33.4351
v  -0.6392 30.3643 -68.4825
v  -0.6395 13.7406 33.7419
v  -0.6394 34.2534 32.6331
v  37.5056 16.0859 85.0095
v  -0.6394 8.7750 103.1018
v  37.5056 7.3289 75.8059
v  -0.6394 -0.3704 93.2841
v  -0.6394 81.7988 -86.0059
v  -0.6395 55.5214 -90.0238
v  85.8403 24.0092 -7.3999
v  57.1318 30.1812 -4.4490
v  69.8984 25.5382 17.3892
v  46.6744 46.7909 20.3402
v  66.2573 35.4000 6.4701
v  48.7933 28.9449 33.3469
v  33.5861 34.4755 7.3337
v  -29.5870 28.0079 103.3717
v  -31.8898 36.1792 104.9343
v  -39.4636 30.9114 78.8091
v  -42.0341 39.0730 80.0414
v  -48.3767 31.3306 36.6350
v  -51.1492 35.0465 37.1500
v  -47.6532 31.2815 37.6382
v  -40.8116 28.3732 65.3320
v  -43.3640 20.3604 63.3257
v  -29.7337 12.1245 85.3285
v  -27.4490 20.2720 87.0336
v  -44.8889 34.9150 38.5951
v  -23.3338 92.3745 -105.2874
v  -33.0890 92.9487 -83.9927
v  -52.2699 88.6014 -115.0759
v  -58.6405 86.1053 75.8124
v  -36.0013 35.2827 106.7142
v  -54.7941 34.1143 32.4816
v  -37.4988 86.2115 118.6165
v  -55.7789 76.0592 22.1687
v  -14.1170 43.7142 -64.2872
v  -40.1978 110.1144 12.0321
v  -38.8481 115.5916 94.5073
v  -46.5558 18.7006 33.4352
v  -38.7844 16.0859 85.0099
v  -38.7846 7.3286 75.8060
v  -87.1191 24.0090 -7.3998
v  -71.1771 25.5381 17.3894
v  -58.4106 30.1812 -4.4489
v  -47.9532 46.7909 20.3403
v  -50.0719 28.9448 33.3469
v  -67.5363 35.3999 6.4703
v  -34.8649 34.4755 7.3337
v  -0.6393 33.3944 121.6088
v  -0.6393 86.3177 128.8940
v  36.2198 86.2118 119.1399
v  34.7224 35.2831 107.2378
v  -0.6396 126.3014 100.5155
v  37.5692 115.5918 95.0309
v  -36.0012 35.2828 107.2379
v  -37.4988 86.2118 119.1401
v  -38.8481 115.5914 95.0310
# 95 vertices

vn 0.0000 -0.3424 0.9396
vn 0.0000 -0.3337 0.9427
vn 0.6584 -0.3206 0.6809
vn 0.7041 -0.3214 0.6332
vn 0.9099 -0.3241 0.2589
vn 0.9046 -0.3363 0.2619
vn 0.7910 -0.5718 0.2176
vn 0.7671 -0.6028 0.2196
vn 0.8339 0.4882 0.2573
vn 0.8921 0.1804 0.4143
vn 0.8874 0.1957 0.4173
vn 0.6728 0.0350 0.7390
vn 0.6424 0.0221 0.7661
vn 0.0000 -0.0505 0.9987
vn 0.0000 -0.0458 0.9989
vn 0.8008 0.5421 0.2548
vn -0.0000 0.9984 0.0566
vn -0.0000 1.0000 -0.0006
vn -0.1554 0.9878 0.0045
vn -0.1341 0.9904 0.0347
vn 0.1041 0.9918 -0.0744
vn 0.9702 0.1700 0.1725
vn 0.9481 -0.3090 -0.0755
vn 0.5563 -0.6769 0.4820
vn 0.0000 -0.7080 0.7062
vn 0.0000 0.2257 0.9742
vn 0.5948 0.1762 0.7843
vn 0.9548 0.1306 -0.2670
vn 0.8759 -0.1634 -0.4540
vn 0.6394 0.6686 -0.3797
vn -0.0000 0.8778 -0.4790
vn 0.0000 0.9462 -0.3235
vn -0.0000 0.9997 -0.0250
vn -0.0000 0.8466 0.5322
vn 0.6097 0.7018 0.3684
vn 0.0000 -0.9411 -0.3381
vn 0.6224 -0.7613 -0.1816
vn 0.0000 -0.8311 -0.5562
vn -0.0000 -0.9927 -0.1209
vn 0.0000 -0.1746 0.9846
vn 0.6187 0.2735 0.7365
vn 0.0000 0.0969 0.9953
vn 0.6052 -0.7792 0.1629
vn 0.0000 -0.9383 0.3459
vn -0.0000 0.9158 -0.4015
vn -0.0000 -0.1513 -0.9885
vn 0.8133 -0.2453 -0.5276
vn -0.2438 -0.1730 -0.9543
vn 0.6498 -0.4980 0.5743
vn 0.3613 0.9323 -0.0130
vn 0.4584 0.8852 -0.0798
vn 0.4106 -0.6140 0.6741
vn -0.4701 -0.2937 -0.8323
vn -0.6584 -0.3206 0.6809
vn -0.7041 -0.3214 0.6332
vn -0.9099 -0.3241 0.2589
vn -0.9046 -0.3363 0.2619
vn -0.7910 -0.5718 0.2176
vn -0.7671 -0.6028 0.2196
vn -0.8339 0.4882 0.2573
vn -0.8874 0.1957 0.4173
vn -0.8921 0.1804 0.4143
vn -0.6728 0.0350 0.7390
vn -0.6424 0.0221 0.7661
vn -0.8008 0.5421 0.2548
vn 0.1554 0.9878 0.0045
vn 0.1341 0.9904 0.0347
vn -0.1041 0.9918 -0.0744
vn -0.9702 0.1700 0.1725
vn -0.5563 -0.6769 0.4820
vn -0.9481 -0.3090 -0.0755
vn -0.5948 0.1762 0.7843
vn -0.9548 0.1306 -0.2670
vn -0.8759 -0.1634 -0.4540
vn -0.6394 0.6686 -0.3797
vn -0.6097 0.7018 0.3684
vn -0.6224 -0.7613 -0.1817
vn -0.6187 0.2735 0.7365
vn -0.6052 -0.7792 0.1629
vn -0.8133 -0.2453 -0.5276
vn -0.6498 -0.4980 0.5743
vn 0.2438 -0.1730 -0.9543
vn -0.3613 0.9323 -0.0130
vn -0.4106 -0.6140 0.6741
vn -0.4584 0.8852 -0.0798
vn 0.4701 -0.2937 -0.8323
vn 0.0000 -0.1970 0.9804
vn 0.2927 0.2438 0.9246
vn 0.3773 -0.2213 0.8993
vn -0.0000 0.6027 0.7979
vn 0.2763 0.6020 0.7491
vn -0.3773 -0.2213 0.8993
vn -0.2927 0.2438 0.9246
vn -0.2763 0.6021 0.7491
# 94 vertex normals

vt 0.9029 0.6991 0.0000
vt 0.9958 0.6991 0.0000
vt 0.9029 0.9447 0.0000
vt 0.9958 0.9447 0.0000
vt 0.9958 0.9790 0.0000
vt 0.9958 0.7345 0.0000
vt 0.9029 0.7345 0.0000
vt 0.9029 0.9790 0.0000
vt 0.8319 0.8715 0.0000
vt 0.8319 0.9949 0.0000
vt 0.7218 0.9949 0.0000
vt 0.6694 0.8715 0.0000
vt 0.5676 0.9949 0.0000
vt 0.3181 0.7618 0.0000
vt 0.4580 0.5791 0.0000
vt 0.2293 0.5750 0.0000
vt 0.0059 0.5711 0.0000
vt 0.0065 0.7880 0.0000
vt 0.1943 0.7780 0.0000
vt 0.4906 0.7251 0.0000
vt 0.8415 0.5830 0.0000
vt 0.6043 0.8192 0.0000
vt 0.6457 0.8631 0.0000
vt 0.8286 0.6393 0.0000
vt 0.5210 0.9933 0.0000
vt 0.0089 0.9960 0.0000
vt 0.2187 0.8836 0.0000
vt 0.7486 0.4528 0.0000
vt 0.6399 0.4336 0.0000
vt 0.8993 0.5098 0.0000
vt 0.6492 0.4077 0.0000
vt 0.4534 0.1178 0.0000
vt 0.4557 0.2218 0.0000
vt 0.7003 0.2226 0.0000
vt 0.6889 0.1138 0.0000
vt 0.6886 0.1142 0.0000
vt 0.7011 0.2230 0.0000
vt 0.9293 0.2216 0.0000
vt 0.9301 0.1104 0.0000
vt 0.4653 0.2357 0.0000
vt 0.4590 0.2991 0.0000
vt 0.5540 0.3108 0.0000
vt 0.5549 0.2502 0.0000
vt 0.8895 0.6533 0.0000
vt 0.9892 0.5621 0.0000
vt 0.7210 0.3778 0.0000
vt 0.8327 0.4337 0.0000
vt 0.8247 0.3248 0.0000
vt 0.9962 0.2411 0.0000
vt 0.8336 0.2437 0.0000
vt 0.8246 0.3246 0.0000
vt 0.9928 0.3305 0.0000
vt 0.9949 0.3288 0.0000
vt 0.8254 0.3256 0.0000
vt 0.9922 0.3300 0.0000
vt 0.9949 0.4430 0.0000
vt 0.7302 0.2482 0.0000
vt 0.3191 0.7636 0.0000
vt 0.2301 0.5759 0.0000
vt 0.4590 0.5809 0.0000
vt 0.0064 0.5705 0.0000
vt 0.1952 0.7788 0.0000
vt 0.0070 0.7872 0.0000
vt 0.4916 0.7268 0.0000
vt 0.8421 0.5833 0.0000
vt 0.6052 0.8203 0.0000
vt 0.8291 0.6390 0.0000
vt 0.6461 0.8625 0.0000
vt 0.5215 0.9926 0.0000
vt 0.2195 0.8844 0.0000
vt 0.0093 0.9953 0.0000
vt 0.6408 0.4351 0.0000
vt 0.7491 0.4526 0.0000
vt 0.8998 0.5096 0.0000
vt 0.6496 0.4073 0.0000
vt 0.7005 0.0079 0.0000
vt 0.4558 0.0103 0.0000
vt 0.9277 0.0099 0.0000
vt 0.6995 0.0081 0.0000
vt 0.4658 0.2351 0.0000
vt 0.5554 0.2497 0.0000
vt 0.5548 0.3119 0.0000
vt 0.4599 0.3002 0.0000
vt 0.8899 0.6529 0.0000
vt 0.9896 0.5619 0.0000
vt 0.7224 0.3776 0.0000
vt 0.8249 0.3247 0.0000
vt 0.8341 0.4336 0.0000
vt 0.9960 0.2412 0.0000
vt 0.9926 0.3304 0.0000
vt 0.8245 0.3245 0.0000
vt 0.8327 0.2442 0.0000
vt 0.8249 0.3258 0.0000
vt 0.9947 0.3289 0.0000
vt 0.9935 0.3298 0.0000
vt 0.9963 0.4428 0.0000
vt 0.7301 0.2477 0.0000
vt 0.4310 0.2944 0.0000
vt 0.2136 0.2940 0.0000
vt 0.2045 0.4656 0.0000
vt 0.4225 0.4594 0.0000
vt 0.0089 0.2957 0.0000
vt 0.0466 0.4733 0.0000
vt 0.4216 0.1312 0.0000
vt 0.2035 0.1235 0.0000
vt 0.0456 0.1187 0.0000
# 106 texture coords

g model1239
usemtl material1
s 1
f 3/3/3 2/2/2 1/1/1 
f 4/4/4 2/2/2 3/3/3 
f 5/1/5 4/4/4 3/3/3 
f 6/2/6 4/4/4 5/1/5 
f 7/3/7 6/2/6 5/1/5 
f 8/4/8 6/2/6 7/3/7 
f 11/7/11 10/6/10 9/5/9 
f 12/5/12 10/6/10 11/7/11 
f 13/8/13 12/5/12 11/7/11 
f 14/6/14 12/5/12 13/8/13 
f 15/7/15 14/6/14 13/8/13 
f 16/8/16 11/7/11 9/5/9 
f 19/11/19 18/10/18 17/9/17 
f 20/12/20 19/11/19 17/9/17 
f 21/13/21 19/11/19 20/12/20 
f 24/16/24 23/15/23 22/14/22 
f 24/16/24 27/19/27 26/18/26 25/17/25 
f 23/15/23 28/20/28 22/14/22 
f 28/20/28 23/15/23 29/21/29 
f 32/24/32 31/23/31 30/22/30 
f 30/22/30 28/20/28 29/21/29 
f 29/21/29 32/24/32 30/22/30 
f 33/25/33 30/22/30 31/23/31 
f 35/27/35 34/26/34 26/18/26 27/19/27 
f 22/14/22 28/20/28 30/22/30 
f 22/14/22 35/27/35 27/19/27 
f 30/22/30 35/27/35 22/14/22 
f 33/25/33 34/26/34 35/27/35 
f 35/27/35 30/22/30 33/25/33 
f 22/14/22 27/19/27 24/16/24 
f 37/29/37 36/28/36 29/21/29 
f 36/28/36 38/30/38 29/21/29 
f 37/29/37 39/31/39 36/28/36 
f 40/35/40 23/34/23 24/33/24 25/32/25 
f 42/39/42 41/38/41 23/37/23 40/36/40 
f 44/43/44 43/42/43 41/41/41 42/40/42 
f 39/31/39 43/42/43 44/43/44 
f 41/41/41 43/42/43 23/15/23 
f 39/31/39 37/29/37 43/42/43 
f 37/29/37 23/15/23 43/42/43 
f 29/21/29 23/15/23 37/29/37 
f 45/44/45 32/24/32 29/21/29 
f 46/45/46 45/44/45 29/21/29 
f 29/21/29 38/30/38 46/45/46 
f 49/48/49 48/47/48 47/46/47 
f 52/52/52 49/51/49 51/50/51 50/49/50 
f 51/50/51 48/54/48 53/53/53 50/49/50 
f 53/56/53 48/47/48 49/48/49 52/55/52 
f 49/51/49 47/57/47 51/50/51 
f 51/50/51 47/57/47 48/54/48 
f 2/2/2 54/3/54 1/1/1 
f 2/2/2 55/4/55 54/3/54 
f 55/4/55 56/1/56 54/3/54 
f 55/4/55 57/2/57 56/1/56 
f 57/2/57 58/3/58 56/1/56 
f 57/2/57 59/4/59 58/3/58 
f 62/6/62 61/7/61 60/5/60 
f 62/6/62 63/5/63 61/7/61 
f 63/5/63 64/8/64 61/7/61 
f 63/5/63 14/6/14 64/8/64 
f 14/6/14 15/7/15 64/8/64 
f 61/7/61 65/8/65 60/5/60 
f 18/10/18 66/11/66 17/9/17 
f 66/11/66 67/12/67 17/9/17 
f 66/11/66 68/13/68 67/12/67 
f 71/60/71 70/59/70 69/58/69 
f 26/63/26 72/62/72 70/59/70 25/61/25 
f 73/64/73 71/60/71 69/58/69 
f 71/60/71 73/64/73 74/65/74 
f 31/68/31 32/67/32 75/66/75 
f 73/64/73 75/66/75 74/65/74 
f 32/67/32 74/65/74 75/66/75 
f 75/66/75 33/69/33 31/68/31 
f 26/63/26 34/71/34 76/70/76 72/62/72 
f 73/64/73 69/58/69 75/66/75 
f 76/70/76 69/58/69 72/62/72 
f 76/70/76 75/66/75 69/58/69 
f 34/71/34 33/69/33 76/70/76 
f 75/66/75 76/70/76 33/69/33 
f 72/62/72 69/58/69 70/59/70 
f 36/73/36 77/72/77 74/65/74 
f 38/74/38 36/73/36 74/65/74 
f 39/75/39 77/72/77 36/73/36 
f 70/77/70 71/76/71 40/35/40 25/32/25 
f 71/79/71 78/78/78 42/39/42 40/36/40 
f 78/83/78 79/82/79 44/81/44 42/80/42 
f 79/82/79 39/75/39 44/81/44 
f 79/82/79 78/83/78 71/60/71 
f 77/72/77 39/75/39 79/82/79 
f 71/60/71 77/72/77 79/82/79 
f 71/60/71 74/65/74 77/72/77 
f 32/67/32 45/84/45 74/65/74 
f 45/84/45 46/85/46 74/65/74 
f 38/74/38 74/65/74 46/85/46 
f 82/88/82 81/87/81 80/86/80 
f 85/92/85 81/91/81 84/90/84 83/89/83 
f 86/94/86 82/93/82 85/92/85 83/89/83 
f 81/87/81 82/88/82 86/96/86 84/95/84 
f 80/97/80 81/91/81 85/92/85 
f 80/97/80 85/92/85 82/93/82 
f 90/101/89 89/100/88 88/99/26 87/98/87 
f 92/103/91 91/102/90 88/99/26 89/100/88 
f 88/99/26 94/105/93 93/104/92 87/98/87 
f 88/99/26 91/102/90 95/106/94 94/105/93 
# 20 polygons - 84 triangles

